<svg width="37" height="43" viewBox="0 0 37 43" fill="none" xmlns="http://www.w3.org/2000/svg">
<path d="M37 42.5002H0V11.8816H37V42.5002ZM2.69694 39.851H34.3031V14.5308H2.69694V39.851Z" fill="#0D83D9"/>
<path d="M10.9848 22.5496L9.52227 20.3283C11.8458 18.8509 13.6403 16.2017 15.2896 13.3793C12.9661 13.0838 10.4143 12.3706 7.99746 10.8625C5.51835 9.31378 4.24248 7.17405 4.50181 4.98336C4.71964 3.16968 5.96438 1.66167 7.75888 1.04013C9.90607 0.306503 12.3748 1.02994 14.356 2.97608C15.9742 4.5656 17.2397 6.2672 18.3807 7.979C19.6669 5.85964 21.0776 3.87273 22.7892 2.38511C24.8326 0.62237 27.1976 0.0619618 29.3033 0.836343C31.046 1.47827 32.2803 2.97608 32.5085 4.74901C32.7782 6.79704 31.6994 8.83489 29.5419 10.3327C27.5503 11.7184 24.7289 12.7577 21.7311 13.2366C23.2559 15.5088 25.0504 17.8014 27.6852 20.0125L25.9321 22.0198C22.5713 19.1872 20.5175 16.324 18.7126 13.5117C18.5674 13.5117 18.4222 13.5219 18.277 13.5219C16.2957 17.0576 14.1486 20.5321 10.9848 22.5496ZM9.48078 3.40403C9.19034 3.40403 8.91027 3.44479 8.64058 3.53649C7.83149 3.8116 7.27136 4.48409 7.178 5.27885C7.04316 6.43023 7.87299 7.64275 9.43929 8.62092C11.6695 10.0067 14.2004 10.6791 16.721 10.8524C16.7729 10.7607 16.8248 10.6791 16.8663 10.5874C15.58 8.55978 14.2523 6.63402 12.4474 4.86109C11.4827 3.91349 10.4351 3.40403 9.48078 3.40403ZM19.9885 10.5161C20.0404 10.6078 20.1026 10.6995 20.1545 10.7912C23.3182 10.4652 26.1811 9.43606 27.9756 8.18278C29.2929 7.26575 29.9672 6.14493 29.822 5.09544C29.7182 4.30068 29.1477 3.618 28.3386 3.32252C27.1976 2.90476 25.818 3.28176 24.5525 4.3822C22.8099 5.90039 21.3888 8.09108 19.9885 10.5161Z" fill="#0D83D9"/>
<path d="M19.8434 13.2061H17.1465V41.1653H19.8434V13.2061Z" fill="#0D83D9"/>
</svg>
