<svg xmlns="http://www.w3.org/2000/svg" style="display: none;">

    <symbol id="icon-gift" viewBox="0 0 37 43">
      <path d="M37 42.5002H0V11.8816H37V42.5002ZM2.69694 39.851H34.3031V14.5308H2.69694V39.851Z" />
      <path d="M10.9848 22.5496L9.52227 20.3283C11.8458 18.8509 13.6403 16.2017 15.2896 13.3793C12.9661 13.0838 10.4143 12.3706 7.99746 10.8625C5.51835 9.31378 4.24248 7.17405 4.50181 4.98336C4.71964 3.16968 5.96438 1.66167 7.75888 1.04013C9.90607 0.306503 12.3748 1.02994 14.356 2.97608C15.9742 4.5656 17.2397 6.2672 18.3807 7.979C19.6669 5.85964 21.0776 3.87273 22.7892 2.38511C24.8326 0.62237 27.1976 0.0619618 29.3033 0.836343C31.046 1.47827 32.2803 2.97608 32.5085 4.74901C32.7782 6.79704 31.6994 8.83489 29.5419 10.3327C27.5503 11.7184 24.7289 12.7577 21.7311 13.2366C23.2559 15.5088 25.0504 17.8014 27.6852 20.0125L25.9321 22.0198C22.5713 19.1872 20.5175 16.324 18.7126 13.5117C18.5674 13.5117 18.4222 13.5219 18.277 13.5219C16.2957 17.0576 14.1486 20.5321 10.9848 22.5496ZM9.48078 3.40403C9.19034 3.40403 8.91027 3.44479 8.64058 3.53649C7.83149 3.8116 7.27136 4.48409 7.178 5.27885C7.04316 6.43023 7.87299 7.64275 9.43929 8.62092C11.6695 10.0067 14.2004 10.6791 16.721 10.8524C16.7729 10.7607 16.8248 10.6791 16.8663 10.5874C15.58 8.55978 14.2523 6.63402 12.4474 4.86109C11.4827 3.91349 10.4351 3.40403 9.48078 3.40403ZM19.9885 10.5161C20.0404 10.6078 20.1026 10.6995 20.1545 10.7912C23.3182 10.4652 26.1811 9.43606 27.9756 8.18278C29.2929 7.26575 29.9672 6.14493 29.822 5.09544C29.7182 4.30068 29.1477 3.618 28.3386 3.32252C27.1976 2.90476 25.818 3.28176 24.5525 4.3822C22.8099 5.90039 21.3888 8.09108 19.9885 10.5161Z" />
      <path d="M19.8434 13.2061H17.1465V41.1653H19.8434V13.2061Z" />
    </symbol>

  <symbol id="icon-dice" viewBox="0 0 20 24">
    <path d="M3.29245 3.5301C3.27148 3.47783 3.26101 3.42193 3.26164 3.36561C3.26227 3.30929 3.27399 3.25364 3.29613 3.20185C3.31827 3.15006 3.3504 3.10313 3.39068 3.06376C3.43096 3.02439 3.4786 2.99333 3.53088 2.97238L3.67301 2.91552C3.72552 2.8932 3.78197 2.88157 3.83903 2.88134C3.8961 2.8811 3.95264 2.89225 4.00533 2.91415C4.05803 2.93604 4.10583 2.96823 4.14593 3.00884C4.18603 3.04944 4.21762 3.09764 4.23885 3.1506C4.26008 3.20357 4.27053 3.26025 4.26958 3.3173C4.26863 3.37436 4.2563 3.43065 4.23332 3.48289C4.21034 3.53512 4.17716 3.58224 4.13573 3.62148C4.0943 3.66073 4.04546 3.69131 3.99206 3.71144L3.84993 3.76829C3.79769 3.78927 3.74183 3.79975 3.68553 3.79913C3.62924 3.79851 3.57362 3.78681 3.52185 3.76469C3.47008 3.74257 3.42317 3.71047 3.38381 3.67022C3.34445 3.62997 3.31341 3.58236 3.29245 3.5301V3.5301ZM13.6254 9.43747L10.4103 1.40946C10.3012 1.13695 10.0882 0.918966 9.81832 0.80344C9.54844 0.687913 9.24372 0.684306 8.97118 0.793412L5.06561 2.35755C4.96 2.39979 4.8755 2.48226 4.83069 2.58681C4.78589 2.69136 4.78445 2.80942 4.82669 2.91503C4.86894 3.02064 4.9514 3.10515 5.05595 3.14995C5.1605 3.19476 5.27857 3.1962 5.38418 3.15396L9.28925 1.58982C9.31957 1.57743 9.35205 1.57124 9.3848 1.57162C9.41754 1.572 9.44988 1.57893 9.4799 1.59202C9.51005 1.60475 9.53737 1.62335 9.56025 1.64674C9.58314 1.67013 9.60114 1.69785 9.61321 1.72827L12.829 9.75627C12.8411 9.78671 12.8471 9.81924 12.8467 9.85201C12.8462 9.88477 12.8393 9.91713 12.8263 9.94722C12.8133 9.97731 12.7946 10.0045 12.771 10.0274C12.7475 10.0502 12.7197 10.0682 12.6893 10.0802L4.66276 13.2957C4.63242 13.3083 4.59984 13.3147 4.56699 13.3143C4.53414 13.314 4.50169 13.307 4.47162 13.2938C4.44148 13.281 4.41418 13.2623 4.3913 13.2389C4.36842 13.2155 4.35041 13.1877 4.33831 13.1573L1.12304 5.12953C1.09847 5.06811 1.09927 4.99945 1.12528 4.93862C1.15128 4.87779 1.20036 4.82976 1.26174 4.80509L2.55804 4.28583C2.6103 4.26491 2.65793 4.23391 2.69821 4.19458C2.73849 4.15526 2.77063 4.10839 2.79279 4.05664C2.81495 4.0049 2.82671 3.9493 2.82738 3.89301C2.82806 3.83672 2.81764 3.78085 2.79672 3.72859C2.7758 3.67633 2.7448 3.6287 2.70547 3.58843C2.66615 3.54815 2.61928 3.51601 2.56753 3.49385C2.51579 3.47168 2.46018 3.45993 2.4039 3.45925C2.34761 3.45858 2.29174 3.469 2.23948 3.48992L0.94318 4.00893C0.670864 4.11843 0.453074 4.33144 0.33755 4.60126C0.222025 4.87108 0.21819 5.1757 0.326885 5.44834L3.5424 13.4761C3.65164 13.7487 3.86467 13.9667 4.13465 14.0822C4.40463 14.1978 4.70945 14.2013 4.98205 14.0921L13.0091 10.8766C13.2814 10.7672 13.4992 10.5543 13.6148 10.2845C13.7303 10.0147 13.7341 9.71007 13.6254 9.43747V9.43747ZM4.20354 5.27729C4.35856 5.21476 4.52445 5.18358 4.6916 5.18556C4.85875 5.18753 5.02385 5.22263 5.17736 5.28881V5.28881C5.44625 5.40454 5.66703 5.60944 5.80246 5.86897C5.9379 6.1285 5.97971 6.42679 5.92085 6.71355C5.86199 7.00032 5.70605 7.25802 5.47933 7.44322C5.25262 7.62841 4.96898 7.72978 4.67623 7.73022C4.38099 7.72959 4.09514 7.62632 3.86767 7.43809C3.6402 7.24987 3.48526 6.9884 3.42939 6.69849C3.37352 6.40857 3.4202 6.10825 3.56144 5.84897C3.70267 5.58969 3.92966 5.38759 4.20354 5.27729V5.27729ZM4.29126 6.61305C4.32178 6.68927 4.37421 6.75474 4.44194 6.80116C4.50966 6.84758 4.58963 6.87288 4.67173 6.87385C4.75384 6.87482 4.83438 6.85142 4.90318 6.80661C4.97199 6.7618 5.02595 6.6976 5.05826 6.62211C5.09068 6.54664 5.09996 6.46324 5.08494 6.38249C5.06991 6.30173 5.03125 6.22726 4.97385 6.1685C4.91646 6.10974 4.84291 6.06934 4.76253 6.05242C4.68215 6.0355 4.59856 6.04282 4.52234 6.07345C4.42053 6.11469 4.33912 6.19448 4.29584 6.29544C4.25257 6.39641 4.25092 6.51038 4.29126 6.61256V6.61305ZM9.11159 8.80843C9.00752 8.76659 8.89121 8.76716 8.78755 8.81003C8.6839 8.8529 8.60116 8.93466 8.55704 9.03778C8.51293 9.14091 8.51095 9.25721 8.55153 9.36178C8.59211 9.46635 8.67203 9.55087 8.77416 9.59724C9.00562 9.69641 9.26128 9.72471 9.50882 9.67857C9.75636 9.63243 9.98466 9.51391 10.1648 9.33801C10.345 9.1621 10.469 8.93672 10.521 8.69036C10.5731 8.444 10.551 8.18773 10.4574 7.95396C10.3638 7.72019 10.203 7.51943 9.99527 7.37707C9.78757 7.23471 9.54232 7.15714 9.29053 7.15417C9.03874 7.15121 8.79173 7.22298 8.58074 7.36041C8.36975 7.49784 8.20425 7.69476 8.10518 7.92626C8.06044 8.03076 8.05904 8.14876 8.10129 8.2543C8.14355 8.35984 8.226 8.44426 8.3305 8.48901C8.43501 8.53375 8.55301 8.53515 8.65855 8.4929C8.76408 8.45064 8.84851 8.36819 8.89326 8.26369C8.92551 8.1881 8.97946 8.12378 9.04828 8.07886C9.1171 8.03394 9.1977 8.01045 9.27988 8.01136C9.36205 8.01227 9.44211 8.03753 9.50993 8.08396C9.57774 8.13038 9.63026 8.19588 9.66083 8.27216C9.69141 8.34845 9.69866 8.43208 9.68169 8.51249C9.66471 8.5929 9.62426 8.66647 9.56546 8.72388C9.50666 8.78129 9.43215 8.81997 9.35136 8.83502C9.27056 8.85007 9.18712 8.84082 9.11159 8.80843ZM14.0939 23.0045H13.8697C13.7559 23.0045 13.6469 23.0497 13.5665 23.1301C13.486 23.2105 13.4408 23.3196 13.4408 23.4334C13.4408 23.5471 13.486 23.6562 13.5665 23.7366C13.6469 23.817 13.7559 23.8622 13.8697 23.8622H14.0939C14.2076 23.8622 14.3167 23.817 14.3971 23.7366C14.4776 23.6562 14.5227 23.5471 14.5227 23.4334C14.5227 23.3196 14.4776 23.2105 14.3971 23.1301C14.3167 23.0497 14.2076 23.0045 14.0939 23.0045V23.0045ZM18.5844 13.0002H9.93642C9.64294 13.0006 9.36159 13.1174 9.15409 13.3249C8.94658 13.5325 8.82987 13.8139 8.82954 14.1073V22.7553C8.82987 23.0488 8.94659 23.3301 9.1541 23.5376C9.36161 23.7451 9.64296 23.8619 9.93642 23.8622H12.3582C12.472 23.8622 12.581 23.817 12.6615 23.7366C12.7419 23.6562 12.7871 23.5471 12.7871 23.4334C12.7871 23.3196 12.7419 23.2105 12.6615 23.1301C12.581 23.0497 12.472 23.0045 12.3582 23.0045H9.93642C9.87035 23.0045 9.807 22.9782 9.76027 22.9315C9.71355 22.8847 9.68728 22.8214 9.68721 22.7553V14.1073C9.68721 14.0412 9.71346 13.9778 9.76019 13.931C9.80692 13.8843 9.87031 13.8579 9.93642 13.8579H18.5844C18.6506 13.8579 18.714 13.8842 18.7608 13.9309C18.8076 13.9777 18.8339 14.0412 18.8339 14.1073V22.7553C18.8338 22.8214 18.8075 22.8848 18.7607 22.9315C18.7139 22.9783 18.6505 23.0045 18.5844 23.0045H15.6054C15.4916 23.0045 15.3825 23.0497 15.3021 23.1301C15.2217 23.2105 15.1765 23.3196 15.1765 23.4334C15.1765 23.5471 15.2217 23.6562 15.3021 23.7366C15.3825 23.817 15.4916 23.8622 15.6054 23.8622H18.5844C18.8779 23.8619 19.1593 23.7452 19.3668 23.5377C19.5744 23.3301 19.6911 23.0488 19.6915 22.7553V14.1073C19.6912 13.8138 19.5745 13.5324 19.3669 13.3248C19.1593 13.1173 18.8779 13.0005 18.5844 13.0002V13.0002ZM13.0324 16.1248C13.0324 16.3766 12.9577 16.6226 12.8178 16.832C12.678 17.0413 12.4792 17.2044 12.2466 17.3007C12.014 17.3971 11.7581 17.4222 11.5112 17.3731C11.2643 17.324 11.0375 17.2027 10.8595 17.0247C10.6815 16.8467 10.5603 16.6199 10.5112 16.373C10.4621 16.1261 10.4874 15.8701 10.5838 15.6376C10.6801 15.405 10.8433 15.2062 11.0526 15.0664C11.262 14.9266 11.5081 14.852 11.7598 14.852C12.0972 14.8525 12.4207 14.9867 12.6592 15.2253C12.8978 15.4639 13.032 15.7874 13.0324 16.1248V16.1248ZM12.1747 16.1248C12.1747 16.0427 12.1503 15.9624 12.1047 15.8942C12.0591 15.8259 11.9942 15.7727 11.9184 15.7413C11.8425 15.7099 11.759 15.7017 11.6785 15.7177C11.598 15.7337 11.524 15.7733 11.466 15.8314C11.4079 15.8895 11.3684 15.9634 11.3524 16.044C11.3364 16.1245 11.3447 16.208 11.3761 16.2838C11.4076 16.3597 11.4608 16.4245 11.5291 16.4701C11.5974 16.5157 11.6777 16.54 11.7598 16.5399C11.8698 16.5395 11.9751 16.4956 12.0528 16.4178C12.1305 16.3401 12.1743 16.2347 12.1747 16.1248ZM15.489 16.1248C15.489 15.8731 15.5636 15.627 15.7035 15.4177C15.8433 15.2084 16.0421 15.0453 16.2747 14.9489C16.5072 14.8526 16.7631 14.8274 17.01 14.8765C17.2569 14.9256 17.4837 15.0468 17.6617 15.2248C17.8397 15.4028 17.9609 15.6296 18.0101 15.8765C18.0592 16.1234 18.034 16.3793 17.9376 16.6119C17.8413 16.8445 17.6782 17.0432 17.4688 17.1831C17.2595 17.3229 17.0135 17.3976 16.7617 17.3976C16.4242 17.3973 16.1007 17.2631 15.862 17.0245C15.6234 16.7858 15.4891 16.4623 15.4887 16.1248H15.489ZM16.3466 16.1248C16.3466 16.2069 16.371 16.2872 16.4166 16.3554C16.4622 16.4237 16.527 16.4769 16.6029 16.5083C16.6787 16.5397 16.7622 16.548 16.8427 16.5319C16.9232 16.5159 16.9972 16.4764 17.0553 16.4183C17.1133 16.3603 17.1528 16.2863 17.1689 16.2058C17.1849 16.1253 17.1767 16.0418 17.1452 15.966C17.1138 15.8901 17.0606 15.8253 16.9924 15.7797C16.9241 15.734 16.8438 15.7097 16.7617 15.7097C16.6517 15.71 16.5463 15.7539 16.4685 15.8316C16.3907 15.9094 16.3468 16.0148 16.3464 16.1248H16.3466ZM13.0324 20.7376C13.0324 20.9893 12.9578 21.2355 12.818 21.4448C12.6781 21.6541 12.4793 21.8173 12.2468 21.9137C12.0142 22.01 11.7582 22.0353 11.5113 21.9862C11.2644 21.9371 11.0376 21.8158 10.8596 21.6378C10.6816 21.4598 10.5603 21.233 10.5112 20.9861C10.4621 20.7392 10.4874 20.4832 10.5837 20.2507C10.6801 20.0181 10.8433 19.8193 11.0526 19.6795C11.262 19.5396 11.5081 19.465 11.7598 19.4651C12.0972 19.4655 12.4206 19.5997 12.6591 19.8383C12.8977 20.0768 13.0319 20.4002 13.0324 20.7376V20.7376ZM12.1747 20.7376C12.1744 20.6555 12.1498 20.5754 12.104 20.5073C12.0582 20.4393 11.9933 20.3863 11.9174 20.3551C11.8415 20.3239 11.758 20.3159 11.6776 20.3321C11.5972 20.3483 11.5233 20.388 11.4654 20.4461C11.4076 20.5043 11.3682 20.5783 11.3523 20.6588C11.3364 20.7393 11.3448 20.8227 11.3763 20.8984C11.4078 20.9742 11.461 21.0389 11.5293 21.0844C11.5976 21.13 11.6778 21.1542 11.7598 21.1542C11.87 21.1537 11.9755 21.1096 12.0533 21.0316C12.131 20.9535 12.1747 20.8478 12.1747 20.7376V20.7376ZM15.489 20.7376C15.4892 20.4859 15.5641 20.24 15.7042 20.0309C15.8442 19.8218 16.0431 19.6589 16.2757 19.5627C16.5083 19.4666 16.7641 19.4416 17.0109 19.4909C17.2577 19.5402 17.4844 19.6615 17.6622 19.8396C17.8401 20.0176 17.9612 20.2444 18.0102 20.4913C18.0592 20.7381 18.0339 20.994 17.9375 21.2265C17.8411 21.459 17.678 21.6576 17.4687 21.7974C17.2594 21.9372 17.0134 22.0118 16.7617 22.0118C16.424 22.0115 16.1002 21.8771 15.8615 21.6382C15.6228 21.3993 15.4887 21.0753 15.4887 20.7376H15.489ZM16.3466 20.7376C16.3466 20.8197 16.3709 20.9 16.4165 20.9683C16.462 21.0366 16.5269 21.0898 16.6027 21.1213C16.6786 21.1527 16.762 21.161 16.8426 21.145C16.9231 21.129 16.9971 21.0895 17.0552 21.0314C17.1133 20.9734 17.1528 20.8994 17.1689 20.8189C17.1849 20.7384 17.1767 20.6549 17.1453 20.579C17.1139 20.5032 17.0607 20.4383 16.9924 20.3927C16.9241 20.3471 16.8438 20.3227 16.7617 20.3227C16.6518 20.323 16.5464 20.3668 16.4686 20.4446C16.3908 20.5223 16.3468 20.6276 16.3464 20.7376H16.3466Z" />
  </symbol>






</svg>
